<svg xmlns="http://www.w3.org/2000/svg" viewBox="0 0 32 32" fill="none">
  <rect width="32" height="32" rx="7" fill="#0e62d8" />
  <path
    fill="#fff"
    d="M7 21c-.8 0-1.5-.3-2.1-.8A2.9 2.9 0 0 1 4 18.3v-3.6c0-.8.3-1.5.8-2.1.5-.5 1.2-.8 2.1-.8h1.7l.7-1.7a1 1 0 0 1 .9-.6h3.6c.5 0 .9.3 1.1.7l.7 1.7h1.5c.8 0 1.5.3 2.1.8.5.6.8 1.3.8 2.1v3.6c0 .8-.3 1.5-.8 2.1-.5.5-1.3.8-2.1.8H7Zm1.1-2.5h1.8c.3 0 .5-.2.5-.5v-.6c0-.3-.2-.5-.5-.5H8.1c-.3 0-.5.2-.5.5v.6c0 .3.2.5.5.5Zm6.4 0h1.8c.3 0 .5-.2.5-.5v-.6c0-.3-.2-.5-.5-.5h-1.8c-.3 0-.5.2-.5.5v.6c0 .3.2.5.5.5ZM7 14.5h18v-1.6c0-.3-.1-.6-.3-.8-.2-.2-.5-.4-.8-.4H8.1c-.3 0-.6.2-.8.4-.2.2-.3.5-.3.8v1.6Z"
  />
</svg>
