<svg xmlns="http://www.w3.org/2000/svg" viewBox="0 0 260 44" fill="none" role="img" aria-labelledby="logoTitle">
  <title id="logoTitle">Carros na Cidade</title>
  <rect x="2" y="10" width="38" height="24" rx="6" fill="#0e62d8" fill-opacity="0.12" />
  <path
    fill="#0e62d8"
    d="M10 28c-1.1 0-2-.4-2.8-1.1A3.7 3.7 0 0 1 6 24.3v-4.6c0-1 .4-1.9 1.1-2.6A3.5 3.5 0 0 1 10 16h2l.9-2.1c.2-.5.7-.9 1.3-.9h4.6c.6 0 1.1.3 1.4.9l.9 2.1h2c1.1 0 2 .4 2.8 1.1.7.7 1.1 1.6 1.1 2.6v4.6c0 1-.4 1.9-1.1 2.6-.8.7-1.7 1.1-2.8 1.1H10Zm1.5-3h2.4c.3 0 .6-.3.6-.6v-.7c0-.3-.3-.6-.6-.6h-2.4c-.3 0-.6.3-.6.6v.7c0 .3.3.6.6.6Zm8.6 0h2.4c.3 0 .6-.3.6-.6v-.7c0-.3-.3-.6-.6-.6h-2.4c-.3 0-.6.3-.6.6v.7c0 .3.3.6.6.6ZM10 18.5h16v-2.1c0-.4-.1-.7-.4-1a1.3 1.3 0 0 0-1-.4H11.4c-.4 0-.8.2-1 .4-.3.3-.4.6-.4 1v2.1Z"
  />
  <text
    x="48"
    y="29"
    fill="#1b2436"
    font-family="system-ui, -apple-system, 'Segoe UI', Roboto, Arial, sans-serif"
    font-size="17"
    font-weight="800"
    letter-spacing="-0.02em"
  >
    Carros na Cidade
  </text>
</svg>
